<svg width="59" height="60" viewBox="0 0 59 60" fill="none" xmlns="http://www.w3.org/2000/svg">
<path d="M0.312012 29.6812C0.312012 37.5531 3.38715 45.1026 8.86094 50.6689C14.3347 56.2352 21.7588 59.3623 29.4999 59.3623C37.2409 59.3623 44.665 56.2352 50.1388 50.6689C55.6126 45.1026 58.6877 37.5531 58.6877 29.6812C58.6877 21.8092 55.6126 14.2597 50.1388 8.69341C44.665 3.12711 37.2409 0 29.4999 0C21.7588 0 14.3347 3.12711 8.86094 8.69341C3.38715 14.2597 0.312012 21.8092 0.312012 29.6812Z" fill="#333333" fill-opacity="0.8"/>
<path d="M29.9331 42.7051C22.6706 42.7051 16.7832 36.8178 16.7832 29.5552C16.7832 22.2927 22.6706 16.4053 29.9331 16.4053C37.1956 16.4053 43.083 22.2927 43.083 29.5552C43.083 36.8178 37.1956 42.7051 29.9331 42.7051ZM31.9444 23.1482C31.9444 22.1416 30.911 21.3257 29.9035 21.3257C28.8959 21.3257 27.8923 22.1416 27.8923 23.1482L28.4216 30.7485C28.4216 31.7551 28.8846 32.572 29.8903 32.572C30.8979 32.572 31.4151 31.7551 31.4151 30.7485L31.9444 23.1482ZM29.9648 33.558C28.8267 33.558 27.9061 34.4826 27.9061 35.6205C27.9061 36.7585 28.8268 37.6801 29.9648 37.6801C31.1027 37.6801 32.0273 36.7585 32.0273 35.6205C32.0273 34.4825 31.1027 33.558 29.9648 33.558Z" fill="white"/>
</svg>
