<svg width="133" height="35" viewBox="0 0 133 35" fill="none" xmlns="http://www.w3.org/2000/svg">
<path d="M30.1896 4.16175H33.4896C33.9696 4.16175 34.4056 4.24175 34.7976 4.40175C35.1976 4.55375 35.5376 4.76975 35.8176 5.04975C36.0976 5.32175 36.3136 5.64575 36.4656 6.02175C36.6256 6.38975 36.7056 6.78975 36.7056 7.22175C36.7056 7.65375 36.6256 8.05775 36.4656 8.43375C36.3136 8.80975 36.0936 9.13775 35.8056 9.41775C35.5256 9.68975 35.1896 9.90575 34.7976 10.0658C34.4056 10.2178 33.9696 10.2938 33.4896 10.2938H31.1976V12.9218H30.1896V4.16175ZM31.1976 5.07375V9.36975H33.4296C33.7816 9.36975 34.0976 9.31375 34.3776 9.20175C34.6576 9.08975 34.8936 8.93775 35.0856 8.74575C35.2856 8.55375 35.4376 8.32975 35.5416 8.07375C35.6456 7.80975 35.6976 7.52575 35.6976 7.22175C35.6976 6.91775 35.6456 6.63375 35.5416 6.36975C35.4376 6.10575 35.2856 5.87775 35.0856 5.68575C34.8936 5.49375 34.6536 5.34575 34.3656 5.24175C34.0856 5.12975 33.7696 5.07375 33.4176 5.07375H31.1976ZM42.6405 13.0418C42.0005 13.0418 41.4045 12.9258 40.8525 12.6938C40.3085 12.4538 39.8365 12.1298 39.4365 11.7218C39.0365 11.3138 38.7205 10.8378 38.4885 10.2938C38.2645 9.74975 38.1525 9.16575 38.1525 8.54175C38.1525 7.91775 38.2685 7.33375 38.5005 6.78975C38.7405 6.24575 39.0645 5.76975 39.4725 5.36175C39.8805 4.95375 40.3565 4.63375 40.9005 4.40175C41.4445 4.16175 42.0245 4.04175 42.6405 4.04175C43.2645 4.04175 43.8485 4.16175 44.3925 4.40175C44.9365 4.63375 45.4125 4.95375 45.8205 5.36175C46.2285 5.76975 46.5485 6.24575 46.7805 6.78975C47.0125 7.33375 47.1285 7.91775 47.1285 8.54175C47.1285 9.15775 47.0085 9.73775 46.7685 10.2818C46.5365 10.8258 46.2165 11.3018 45.8085 11.7098C45.4005 12.1178 44.9245 12.4418 44.3805 12.6818C43.8365 12.9218 43.2565 13.0418 42.6405 13.0418ZM42.6405 12.0698C43.1285 12.0698 43.5845 11.9778 44.0085 11.7938C44.4405 11.6098 44.8125 11.3578 45.1245 11.0378C45.4365 10.7178 45.6805 10.3458 45.8565 9.92175C46.0405 9.48975 46.1325 9.02975 46.1325 8.54175C46.1325 8.05375 46.0405 7.59775 45.8565 7.17375C45.6805 6.74175 45.4365 6.36575 45.1245 6.04575C44.8125 5.72575 44.4405 5.47375 44.0085 5.28975C43.5845 5.09775 43.1285 5.00175 42.6405 5.00175C42.1525 5.00175 41.6965 5.09775 41.2725 5.28975C40.8485 5.47375 40.4765 5.72575 40.1565 6.04575C39.8445 6.36575 39.5965 6.74175 39.4125 7.17375C39.2365 7.59775 39.1485 8.05375 39.1485 8.54175C39.1485 9.02975 39.2365 9.48975 39.4125 9.92175C39.5965 10.3458 39.8445 10.7178 40.1565 11.0378C40.4685 11.3578 40.8365 11.6098 41.2605 11.7938C41.6845 11.9778 42.1445 12.0698 42.6405 12.0698ZM48.0018 4.16175H49.0458L50.9778 11.4218L53.4378 4.16175H54.3378L56.6658 11.4458L58.7778 4.16175H59.7978L57.1818 12.9218H56.1978L53.8698 5.64975L51.4098 12.9218H50.4018L48.0018 4.16175ZM61.2912 4.16175H67.1112V5.10975H62.2872V8.04975H67.1112V8.99775H62.2872V11.9618H67.1112V12.9218H61.2912V4.16175ZM68.9435 4.16175H72.4235C72.8635 4.16175 73.2675 4.23375 73.6355 4.37775C74.0115 4.52175 74.3315 4.72175 74.5955 4.97775C74.8595 5.22575 75.0635 5.52575 75.2075 5.87775C75.3595 6.22175 75.4355 6.59375 75.4355 6.99375C75.4355 7.27375 75.3955 7.54975 75.3155 7.82175C75.2355 8.08575 75.1155 8.33375 74.9555 8.56575C74.8035 8.78975 74.6155 8.98975 74.3915 9.16575C74.1675 9.34175 73.9155 9.47775 73.6355 9.57375L75.5435 12.9218H74.4155L72.6995 9.83775H69.9395V12.9218H68.9435V4.16175ZM69.9395 5.08575V8.92575H72.3395C72.6755 8.92575 72.9715 8.87375 73.2275 8.76975C73.4915 8.65775 73.7115 8.51375 73.8875 8.33775C74.0715 8.15375 74.2075 7.94575 74.2955 7.71375C74.3915 7.47375 74.4395 7.22575 74.4395 6.96975C74.4395 6.69775 74.3915 6.44575 74.2955 6.21375C74.1995 5.98175 74.0595 5.78175 73.8755 5.61375C73.6995 5.44575 73.4795 5.31775 73.2155 5.22975C72.9595 5.13375 72.6715 5.08575 72.3515 5.08575H69.9395ZM77.1467 4.16175H79.7147C80.3947 4.16175 81.0147 4.27375 81.5747 4.49775C82.1427 4.72175 82.6227 5.02975 83.0147 5.42175C83.4147 5.81375 83.7227 6.27775 83.9387 6.81375C84.1627 7.34175 84.2747 7.91775 84.2747 8.54175C84.2747 9.16575 84.1587 9.74575 83.9267 10.2818C83.7027 10.8178 83.3867 11.2818 82.9787 11.6738C82.5787 12.0578 82.1027 12.3618 81.5507 12.5858C80.9987 12.8098 80.3987 12.9218 79.7507 12.9218H77.1467V4.16175ZM78.1547 5.07375V11.9858H79.6547C80.1827 11.9858 80.6667 11.8978 81.1067 11.7218C81.5547 11.5458 81.9347 11.3058 82.2467 11.0018C82.5667 10.6898 82.8147 10.3258 82.9907 9.90975C83.1747 9.48575 83.2667 9.02975 83.2667 8.54175C83.2667 8.04575 83.1827 7.58575 83.0147 7.16175C82.8467 6.73775 82.6027 6.37375 82.2827 6.06975C81.9707 5.75775 81.5867 5.51375 81.1307 5.33775C80.6827 5.16175 80.1787 5.07375 79.6187 5.07375H78.1547ZM88.9943 4.16175H92.7383C93.1463 4.16175 93.5143 4.21775 93.8423 4.32975C94.1783 4.43375 94.4663 4.58975 94.7063 4.79775C94.9463 4.99775 95.1303 5.24175 95.2583 5.52975C95.3863 5.81775 95.4503 6.13775 95.4503 6.48975C95.4503 6.91375 95.3503 7.28975 95.1503 7.61775C94.9583 7.94575 94.6703 8.20175 94.2863 8.38575C94.7183 8.56175 95.0503 8.82575 95.2823 9.17775C95.5143 9.52975 95.6303 9.95375 95.6303 10.4498C95.6303 10.8338 95.5623 11.1778 95.4263 11.4818C95.2983 11.7858 95.1103 12.0458 94.8623 12.2618C94.6223 12.4778 94.3303 12.6418 93.9863 12.7538C93.6503 12.8658 93.2743 12.9218 92.8583 12.9218H88.9943V4.16175ZM89.9903 8.87775V11.9978H92.8463C93.3903 11.9978 93.8223 11.8538 94.1423 11.5658C94.4623 11.2698 94.6223 10.8938 94.6223 10.4378C94.6223 9.97375 94.4663 9.59775 94.1543 9.30975C93.8503 9.02175 93.3983 8.87775 92.7983 8.87775H89.9903ZM89.9903 5.07375V7.95375H92.8103C93.3463 7.95375 93.7543 7.81775 94.0343 7.54575C94.3143 7.26575 94.4543 6.91375 94.4543 6.48975C94.4543 6.06575 94.2983 5.72575 93.9863 5.46975C93.6823 5.20575 93.2623 5.07375 92.7263 5.07375H89.9903ZM99.3519 9.32175L96.2439 4.16175H97.3719L99.8559 8.36175L102.376 4.16175H103.492L100.348 9.30975V12.9218H99.3519V9.32175Z" fill="#999999"/>
<path d="M116.608 20.9218H118.756L124.6 34.8651H122.395L116.608 20.9218Z" fill="#55C265"/>
<path d="M42.5137 32.3037L37.7453 20.9218H35.584L41.4411 34.8651H43.6024L49.4326 20.9218H49.0733C48.5495 20.9478 48.0425 21.1148 47.6059 21.4051C47.1693 21.6954 46.8194 22.0982 46.5932 22.5709L42.5137 32.3037Z" fill="#55C265"/>
<path d="M51.1913 31.5291L54.5629 23.4832L59.334 34.8651H61.4818L55.6355 20.9218H53.4742L47.644 34.8651H49.8054L50.4537 33.3158H57.2997C57.2997 33.3158 57.1295 31.5291 55.3923 31.5291H51.1913Z" fill="#55C265"/>
<path d="M14.2435 20.9218H16.3913L22.2377 34.8651H20.0899L15.3188 23.4832L10.5477 34.8651H8.3999L14.2435 20.9218Z" fill="#55C265"/>
<path d="M112.413 20.9218H114.561L120.407 34.8651H118.259L113.488 23.4832L108.717 34.8651H106.569L112.413 20.9218Z" fill="#55C265"/>
<path d="M71.4995 32.8381H71.3184L66.8283 22.3496C66.63 21.9393 66.3245 21.5901 65.9441 21.3388C65.5638 21.0875 65.1225 20.9434 64.667 20.9218H63.146V34.8651H65.0534V23.4319H65.2857L70.1486 34.8003L70.1757 34.8597H73.396V20.9218H71.4859L71.4995 32.8381Z" fill="#55C265"/>
<path d="M90.9428 27.834V22.7058H96.2029C96.6748 22.703 97.1266 22.5138 97.4596 22.1797C97.7926 21.8455 97.9798 21.3933 97.9805 20.9218H89.1543V34.8651H98.4587L97.7428 33.0675H90.9428V29.6208H96.5487V27.834H90.9428Z" fill="#55C265"/>
<path d="M86.5313 20.9218H80.5093C79.3221 20.9218 78.1834 21.3929 77.3439 22.2317C76.5044 23.0704 76.0327 24.208 76.0327 25.3941V30.3928C76.0327 31.5789 76.5044 32.7165 77.3439 33.5552C78.1834 34.3939 79.3221 34.8651 80.5093 34.8651H86.5313V33.0675H80.5661C79.8489 33.0427 79.1678 32.7469 78.6604 32.24C78.1529 31.733 77.8569 31.0526 77.832 30.3361V25.4508C77.8542 24.7324 78.1491 24.0493 78.6568 23.54C79.1645 23.0308 79.8471 22.7335 80.5661 22.7085H84.7401C84.9752 22.7089 85.208 22.6629 85.4253 22.5733C85.6426 22.4837 85.8401 22.3521 86.0065 22.1862C86.1728 22.0202 86.3048 21.8231 86.3949 21.6061C86.4849 21.3892 86.5313 21.1566 86.5313 20.9218" fill="#55C265"/>
<path d="M113.251 31.7666L111.938 34.8652H115.039L113.726 31.7666H113.251Z" fill="#55C265"/>
<path d="M15.0811 31.7666L13.7681 34.8652H16.8695L15.5565 31.7666H15.0811Z" fill="#55C265"/>
<path d="M30.1671 34.8651H23.7993V24.3766H25.5878V33.0675H30.1103C30.8292 33.0453 31.5126 32.7507 32.0219 32.2434C32.5312 31.7361 32.8281 31.0542 32.8525 30.3361V25.4508C32.8302 24.731 32.5342 24.0468 32.0248 23.5373C31.5154 23.0279 30.8308 22.7315 30.1103 22.7085H25.577C25.1045 22.7057 24.6524 22.5162 24.3193 22.1814C23.9863 21.8466 23.7993 21.3938 23.7993 20.9218H30.1671C30.7548 20.9218 31.3368 21.0375 31.8798 21.2622C32.4228 21.487 32.9161 21.8165 33.3316 22.2318C33.747 22.6472 34.0765 23.1402 34.3012 23.6828C34.5259 24.2254 34.6413 24.8069 34.641 25.3941V30.3928C34.641 31.5784 34.1697 32.7156 33.3308 33.5542C32.4918 34.3929 31.3539 34.8644 30.1671 34.8651Z" fill="#55C265"/>
<path d="M102.455 34.9217L101.131 31.7989H104.259L102.936 34.9217H102.455Z" fill="#55C265"/>
</svg>
